<mxfile host="app.diagrams.net" modified="2022-01-16T15:26:30.250Z" agent="5.0 (Windows NT 10.0; Win64; x64) AppleWebKit/537.36 (KHTML, like Gecko) Chrome/97.0.4692.71 Safari/537.36" etag="9hboXQbuCtFyg6pfM0QE" version="16.2.7" type="github">
  <diagram id="C5RBs43oDa-KdzZeNtuy" name="Page-1">
    <mxGraphModel dx="1422" dy="762" grid="1" gridSize="10" guides="1" tooltips="1" connect="1" arrows="1" fold="1" page="1" pageScale="1" pageWidth="827" pageHeight="1169" math="0" shadow="0">
      <root>
        <mxCell id="WIyWlLk6GJQsqaUBKTNV-0" />
        <mxCell id="WIyWlLk6GJQsqaUBKTNV-1" parent="WIyWlLk6GJQsqaUBKTNV-0" />
        <mxCell id="_EFyNpUiORrGNo_JrzGR-0" value="voting api methods&lt;br&gt;" style="rounded=0;whiteSpace=wrap;html=1;" vertex="1" parent="WIyWlLk6GJQsqaUBKTNV-1">
          <mxGeometry x="330" y="30" width="120" height="60" as="geometry" />
        </mxCell>
        <mxCell id="_EFyNpUiORrGNo_JrzGR-1" value="type 1" style="rounded=0;whiteSpace=wrap;html=1;fillColor=#dae8fc;strokeColor=#6c8ebf;" vertex="1" parent="WIyWlLk6GJQsqaUBKTNV-1">
          <mxGeometry x="50" y="190" width="120" height="60" as="geometry" />
        </mxCell>
        <mxCell id="_EFyNpUiORrGNo_JrzGR-8" style="edgeStyle=orthogonalEdgeStyle;rounded=0;orthogonalLoop=1;jettySize=auto;html=1;exitX=0.5;exitY=1;exitDx=0;exitDy=0;entryX=0;entryY=0.75;entryDx=0;entryDy=0;" edge="1" parent="WIyWlLk6GJQsqaUBKTNV-1" source="_EFyNpUiORrGNo_JrzGR-2" target="_EFyNpUiORrGNo_JrzGR-3">
          <mxGeometry relative="1" as="geometry" />
        </mxCell>
        <mxCell id="_EFyNpUiORrGNo_JrzGR-9" style="edgeStyle=orthogonalEdgeStyle;rounded=0;orthogonalLoop=1;jettySize=auto;html=1;exitX=0;exitY=0.5;exitDx=0;exitDy=0;entryX=0;entryY=0.5;entryDx=0;entryDy=0;" edge="1" parent="WIyWlLk6GJQsqaUBKTNV-1" source="_EFyNpUiORrGNo_JrzGR-2" target="_EFyNpUiORrGNo_JrzGR-4">
          <mxGeometry relative="1" as="geometry" />
        </mxCell>
        <mxCell id="_EFyNpUiORrGNo_JrzGR-2" value="localhost//&lt;br&gt;3000//votingpage1&lt;br&gt;html page" style="rounded=0;whiteSpace=wrap;html=1;" vertex="1" parent="WIyWlLk6GJQsqaUBKTNV-1">
          <mxGeometry x="51" y="300" width="120" height="60" as="geometry" />
        </mxCell>
        <mxCell id="_EFyNpUiORrGNo_JrzGR-6" value="" style="edgeStyle=orthogonalEdgeStyle;rounded=0;orthogonalLoop=1;jettySize=auto;html=1;" edge="1" parent="WIyWlLk6GJQsqaUBKTNV-1" source="_EFyNpUiORrGNo_JrzGR-3" target="_EFyNpUiORrGNo_JrzGR-5">
          <mxGeometry relative="1" as="geometry" />
        </mxCell>
        <mxCell id="_EFyNpUiORrGNo_JrzGR-3" value="radio 1" style="rounded=1;whiteSpace=wrap;html=1;" vertex="1" parent="WIyWlLk6GJQsqaUBKTNV-1">
          <mxGeometry x="130" y="410" width="120" height="60" as="geometry" />
        </mxCell>
        <mxCell id="_EFyNpUiORrGNo_JrzGR-7" style="edgeStyle=orthogonalEdgeStyle;rounded=0;orthogonalLoop=1;jettySize=auto;html=1;exitX=1;exitY=0.5;exitDx=0;exitDy=0;" edge="1" parent="WIyWlLk6GJQsqaUBKTNV-1" source="_EFyNpUiORrGNo_JrzGR-4" target="_EFyNpUiORrGNo_JrzGR-5">
          <mxGeometry relative="1" as="geometry">
            <Array as="points">
              <mxPoint x="340" y="560" />
            </Array>
          </mxGeometry>
        </mxCell>
        <mxCell id="_EFyNpUiORrGNo_JrzGR-4" value="radio 2&lt;br&gt;" style="rounded=1;whiteSpace=wrap;html=1;" vertex="1" parent="WIyWlLk6GJQsqaUBKTNV-1">
          <mxGeometry x="130" y="530" width="120" height="60" as="geometry" />
        </mxCell>
        <mxCell id="_EFyNpUiORrGNo_JrzGR-12" value="" style="edgeStyle=orthogonalEdgeStyle;rounded=0;orthogonalLoop=1;jettySize=auto;html=1;" edge="1" parent="WIyWlLk6GJQsqaUBKTNV-1" source="_EFyNpUiORrGNo_JrzGR-5" target="_EFyNpUiORrGNo_JrzGR-11">
          <mxGeometry relative="1" as="geometry" />
        </mxCell>
        <mxCell id="_EFyNpUiORrGNo_JrzGR-20" style="edgeStyle=orthogonalEdgeStyle;rounded=0;orthogonalLoop=1;jettySize=auto;html=1;exitX=0.5;exitY=1;exitDx=0;exitDy=0;entryX=0;entryY=0.5;entryDx=0;entryDy=0;" edge="1" parent="WIyWlLk6GJQsqaUBKTNV-1" source="_EFyNpUiORrGNo_JrzGR-5" target="_EFyNpUiORrGNo_JrzGR-16">
          <mxGeometry relative="1" as="geometry" />
        </mxCell>
        <mxCell id="_EFyNpUiORrGNo_JrzGR-5" value="submit&amp;nbsp;&lt;br&gt;(post&lt;br&gt;" style="ellipse;whiteSpace=wrap;html=1;rounded=1;" vertex="1" parent="WIyWlLk6GJQsqaUBKTNV-1">
          <mxGeometry x="330" y="410" width="100" height="60" as="geometry" />
        </mxCell>
        <mxCell id="_EFyNpUiORrGNo_JrzGR-15" value="" style="edgeStyle=orthogonalEdgeStyle;rounded=0;orthogonalLoop=1;jettySize=auto;html=1;" edge="1" parent="WIyWlLk6GJQsqaUBKTNV-1" source="_EFyNpUiORrGNo_JrzGR-11" target="_EFyNpUiORrGNo_JrzGR-14">
          <mxGeometry relative="1" as="geometry" />
        </mxCell>
        <mxCell id="_EFyNpUiORrGNo_JrzGR-11" value="if radio 1" style="whiteSpace=wrap;html=1;rounded=1;" vertex="1" parent="WIyWlLk6GJQsqaUBKTNV-1">
          <mxGeometry x="500" y="410" width="120" height="60" as="geometry" />
        </mxCell>
        <mxCell id="_EFyNpUiORrGNo_JrzGR-21" style="edgeStyle=orthogonalEdgeStyle;rounded=0;orthogonalLoop=1;jettySize=auto;html=1;exitX=1;exitY=0.5;exitDx=0;exitDy=0;" edge="1" parent="WIyWlLk6GJQsqaUBKTNV-1" source="_EFyNpUiORrGNo_JrzGR-14">
          <mxGeometry relative="1" as="geometry">
            <mxPoint x="900" y="460" as="targetPoint" />
          </mxGeometry>
        </mxCell>
        <mxCell id="_EFyNpUiORrGNo_JrzGR-14" value="option 1 +1" style="whiteSpace=wrap;html=1;rounded=1;" vertex="1" parent="WIyWlLk6GJQsqaUBKTNV-1">
          <mxGeometry x="700" y="410" width="120" height="60" as="geometry" />
        </mxCell>
        <mxCell id="_EFyNpUiORrGNo_JrzGR-19" value="" style="edgeStyle=orthogonalEdgeStyle;rounded=0;orthogonalLoop=1;jettySize=auto;html=1;" edge="1" parent="WIyWlLk6GJQsqaUBKTNV-1" source="_EFyNpUiORrGNo_JrzGR-16" target="_EFyNpUiORrGNo_JrzGR-18">
          <mxGeometry relative="1" as="geometry" />
        </mxCell>
        <mxCell id="_EFyNpUiORrGNo_JrzGR-16" value="else radio 2" style="rounded=0;whiteSpace=wrap;html=1;" vertex="1" parent="WIyWlLk6GJQsqaUBKTNV-1">
          <mxGeometry x="510" y="500" width="120" height="60" as="geometry" />
        </mxCell>
        <mxCell id="_EFyNpUiORrGNo_JrzGR-22" style="edgeStyle=orthogonalEdgeStyle;rounded=0;orthogonalLoop=1;jettySize=auto;html=1;" edge="1" parent="WIyWlLk6GJQsqaUBKTNV-1" source="_EFyNpUiORrGNo_JrzGR-18" target="_EFyNpUiORrGNo_JrzGR-23">
          <mxGeometry relative="1" as="geometry">
            <mxPoint x="900" y="460" as="targetPoint" />
          </mxGeometry>
        </mxCell>
        <mxCell id="_EFyNpUiORrGNo_JrzGR-18" value="option 2 +2" style="rounded=0;whiteSpace=wrap;html=1;" vertex="1" parent="WIyWlLk6GJQsqaUBKTNV-1">
          <mxGeometry x="710" y="500" width="120" height="60" as="geometry" />
        </mxCell>
        <mxCell id="_EFyNpUiORrGNo_JrzGR-23" value="" style="rounded=0;whiteSpace=wrap;html=1;" vertex="1" parent="WIyWlLk6GJQsqaUBKTNV-1">
          <mxGeometry x="900" y="420" width="120" height="60" as="geometry" />
        </mxCell>
      </root>
    </mxGraphModel>
  </diagram>
</mxfile>
